<svg width="96px" height="25px" viewBox="0 0 96 25" version="1.1" xmlns="http://www.w3.org/2000/svg" xmlns:xlink="http://www.w3.org/1999/xlink">
    <title>Page 1</title>
    <desc>Created with Sketch.</desc>
    <defs></defs>
    <g id="Page-1" stroke="none" stroke-width="1" fill="none" fill-rule="evenodd">
        <g id="lists-page-2-copy" transform="translate(-20.000000, -9.000000)" fill="#000000">
            <g id="Page-1" transform="translate(20.000000, 9.000000)">
                <path d="M66.7039341,1.19045647 C66.7476988,1.18255059 66.7996518,1.17718588 66.8566871,1.17323294 C66.9142871,1.17069176 66.9690635,1.16786824 67.0215812,1.16786824 C67.0735341,1.16786824 67.1297224,1.17069176 67.1912753,1.17323294 C67.2528282,1.17718588 67.3033694,1.18255059 67.3445929,1.19045647 L68.3805459,3.69775059 L69.4235576,1.19045647 C69.4602635,1.18255059 69.5071341,1.17718588 69.5624753,1.17323294 C69.6186635,1.17069176 69.6723106,1.16786824 69.7245459,1.16786824 C69.7725459,1.16786824 69.8267576,1.17069176 69.8857694,1.17323294 C69.9450635,1.17718588 69.99504,1.18255059 70.0359812,1.19045647 L70.2260047,5.19732706 C70.1811106,5.20410353 70.1356518,5.20918588 70.0887812,5.21342118 C70.0427576,5.21737412 69.99504,5.21878588 69.94704,5.21878588 C69.8987576,5.21878588 69.8513224,5.21737412 69.8050165,5.21342118 C69.7584282,5.20918588 69.7149459,5.20410353 69.6742871,5.19732706 L69.5458165,2.08240941 L68.5649224,4.36692706 C68.4906635,4.37765647 68.4144282,4.38273882 68.3367812,4.38273882 C68.2659106,4.38273882 68.1947576,4.37765647 68.1247341,4.36692706 L67.1771576,2.06546824 L67.0495341,5.19732706 C67.0080282,5.20410353 66.9653929,5.20918588 66.9210635,5.21342118 C66.8761694,5.21737412 66.8335341,5.21878588 66.7923106,5.21878588 C66.7445929,5.21878588 66.6977224,5.21737412 66.6533929,5.21342118 C66.6087812,5.20918588 66.5658635,5.20410353 66.5252047,5.19732706 L66.7039341,1.19045647 Z" id="Fill-1"></path>
                <path d="M71.1394165,1.70800941 C71.1320753,1.66368 71.1275576,1.61596235 71.1261459,1.56372706 C71.1241694,1.51149176 71.1233224,1.46433882 71.1233224,1.42480941 C71.1233224,1.38302118 71.1241694,1.33756235 71.1261459,1.28504471 C71.1275576,1.23337412 71.1320753,1.18650353 71.1394165,1.14471529 C71.1876988,1.13822118 71.2393694,1.13285647 71.29584,1.12890353 C71.3514635,1.12495059 71.3994635,1.12353882 71.4404047,1.12353882 C71.4810635,1.12353882 71.5299106,1.12495059 71.5852518,1.12890353 C71.6408753,1.13285647 71.6916988,1.13822118 71.7357459,1.14471529 C71.7433694,1.18650353 71.7478871,1.23337412 71.7498635,1.28504471 C71.75184,1.33756235 71.7524047,1.38302118 71.7524047,1.42480941 C71.7524047,1.46433882 71.75184,1.51149176 71.7498635,1.56372706 C71.7478871,1.61596235 71.7433694,1.66368 71.7357459,1.70800941 C71.6916988,1.71591529 71.6422871,1.72128 71.5880753,1.72523294 C71.5347106,1.72918588 71.4869929,1.73059765 71.4463341,1.73059765 C71.40144,1.73059765 71.3514635,1.72918588 71.29584,1.72523294 C71.2393694,1.72128 71.1876988,1.71591529 71.1394165,1.70800941 Z M71.2625224,2.77276235 L70.8999812,2.77276235 C70.89264,2.74311529 70.8869929,2.70838588 70.8833224,2.66942118 C70.8799341,2.63130353 70.8779576,2.59346824 70.8779576,2.55563294 C70.8779576,2.51864471 70.8799341,2.47939765 70.8833224,2.44128 C70.8869929,2.40203294 70.89264,2.36702118 70.8999812,2.33793882 L71.8029459,2.33793882 L71.8029459,5.19732706 C71.7620047,5.20410353 71.7165459,5.20918588 71.6662871,5.21342118 C71.6160282,5.21737412 71.5708518,5.21878588 71.5299106,5.21878588 C71.4923576,5.21878588 71.4491576,5.21737412 71.3988988,5.21342118 C71.34864,5.20918588 71.3031812,5.20410353 71.2625224,5.19732706 L71.2625224,2.77276235 Z" id="Fill-3"></path>
                <path d="M74.5340047,2.82364235 C74.4597459,2.79258353 74.3792753,2.77140706 74.29344,2.75700706 C74.2090165,2.74147765 74.1161224,2.73385412 74.0156047,2.73385412 C73.8631341,2.73385412 73.7315576,2.76208941 73.6197459,2.81714824 C73.5082165,2.87277176 73.4164518,2.94928941 73.3433224,3.04528941 C73.27104,3.14326588 73.2176753,3.25648941 73.1823812,3.38947765 C73.1468047,3.52048941 73.1295812,3.66477176 73.1295812,3.82091294 C73.1329694,4.17300706 73.2162635,4.42571294 73.3803106,4.57790118 C73.5435106,4.73093647 73.7668518,4.80688941 74.0492047,4.80688941 C74.1454871,4.80688941 74.2341459,4.80293647 74.3163106,4.79390118 C74.3984753,4.78373647 74.4701929,4.76933647 74.5340047,4.75070118 L74.5340047,2.82364235 Z M74.5340047,1.11173647 C74.5746635,1.10524235 74.6209694,1.09987765 74.6729224,1.09507765 C74.7251576,1.09112471 74.7697694,1.08971294 74.8064753,1.08971294 C74.8474165,1.08971294 74.8928753,1.09112471 74.9431341,1.09507765 C74.9931106,1.09987765 75.0388518,1.10524235 75.0795106,1.11173647 L75.0795106,5.11860706 C74.9386165,5.15954824 74.7807812,5.19484235 74.6060047,5.22138353 C74.4317929,5.24961882 74.2361224,5.26430118 74.0212518,5.26430118 C73.8202165,5.26430118 73.6296282,5.23917176 73.4497694,5.18947765 C73.2693459,5.13865412 73.1129224,5.05592471 72.97824,4.94072471 C72.8455341,4.82552471 72.7390871,4.67728941 72.6605929,4.49517176 C72.5835106,4.31333647 72.5436988,4.08886588 72.5436988,3.82091294 C72.5436988,3.58994824 72.5784282,3.37959529 72.6473224,3.19098353 C72.7159341,3.00096 72.8133459,2.83973647 72.93984,2.70336 C73.0660518,2.56839529 73.2176753,2.46251294 73.3944282,2.38881882 C73.5703341,2.31399529 73.7668518,2.27644235 73.9822871,2.27644235 C74.0785694,2.27644235 74.1759812,2.28434824 74.2745224,2.29903059 C74.3736282,2.31399529 74.4597459,2.33263059 74.5340047,2.35521882 L74.5340047,1.11173647 Z" id="Fill-5"></path>
                <path d="M77.7992471,2.82364235 C77.7247059,2.79258353 77.6453647,2.77140706 77.5598118,2.75700706 C77.4742588,2.74147765 77.3813647,2.73385412 77.2808471,2.73385412 C77.1283765,2.73385412 76.9965176,2.76208941 76.8852706,2.81714824 C76.7740235,2.87277176 76.6816941,2.94928941 76.6094118,3.04528941 C76.5374118,3.14326588 76.4832,3.25648941 76.4476235,3.38947765 C76.4123294,3.52048941 76.3945412,3.66477176 76.3945412,3.82091294 C76.3990588,4.17300706 76.4823529,4.42571294 76.6455529,4.57790118 C76.8087529,4.73093647 77.0320941,4.80688941 77.3141647,4.80688941 C77.4112941,4.80688941 77.5002353,4.80293647 77.5818353,4.79390118 C77.6634353,4.78373647 77.7362824,4.76933647 77.7992471,4.75070118 L77.7992471,2.82364235 Z M77.7992471,1.11173647 C77.8401882,1.10524235 77.8867765,1.09987765 77.9390118,1.09507765 C77.9912471,1.09112471 78.0352941,1.08971294 78.0728471,1.08971294 C78.1132235,1.08971294 78.1589647,1.09112471 78.2089412,1.09507765 C78.2592,1.09987765 78.3046588,1.10524235 78.3458824,1.11173647 L78.3458824,5.11860706 C78.2044235,5.15954824 78.0465882,5.19484235 77.8720941,5.22138353 C77.6976,5.24961882 77.5022118,5.26430118 77.2870588,5.26430118 C77.0863059,5.26430118 76.8957176,5.23917176 76.7150118,5.18947765 C76.5351529,5.13865412 76.3781647,5.05592471 76.2446118,4.94072471 C76.1107765,4.82552471 76.0051765,4.67728941 75.9269647,4.49517176 C75.8493176,4.31333647 75.8097882,4.08886588 75.8097882,3.82091294 C75.8097882,3.58994824 75.8436706,3.37959529 75.9125647,3.19098353 C75.9817412,3.00096 76.0791529,2.83973647 76.2053647,2.70336 C76.3318588,2.56839529 76.4832,2.46251294 76.6599529,2.38881882 C76.8361412,2.31399529 77.0320941,2.27644235 77.2475294,2.27644235 C77.3443765,2.27644235 77.4417882,2.28434824 77.5403294,2.29903059 C77.6388706,2.31399529 77.7247059,2.33263059 77.7992471,2.35521882 L77.7992471,1.11173647 Z" id="Fill-7"></path>
                <path d="M79.2201318,1.11173647 C79.2613553,1.10524235 79.3073788,1.09987765 79.3573553,1.09507765 C79.4073318,1.09112471 79.4530729,1.08971294 79.4940141,1.08971294 C79.5343906,1.08971294 79.5801318,1.09112471 79.6301082,1.09507765 C79.6803671,1.09987765 79.7258259,1.10524235 79.7664847,1.11173647 L79.7664847,4.33310118 C79.7664847,4.43785412 79.7760847,4.51917176 79.7944376,4.57790118 C79.8127906,4.63832471 79.8382024,4.68378353 79.8698259,4.71427765 C79.9011671,4.74674824 79.9384376,4.76651294 79.9810729,4.77583059 C80.0242729,4.78514824 80.0697318,4.79107765 80.1177318,4.79107765 C80.1513318,4.79107765 80.1894494,4.78853647 80.2320847,4.78373647 C80.27472,4.78119529 80.3111435,4.77583059 80.3413553,4.76792471 C80.3746729,4.89780706 80.3910494,5.03926588 80.3910494,5.19230118 C80.3388141,5.20924235 80.2752847,5.22138353 80.2013082,5.22787765 C80.1270494,5.23380706 80.0584376,5.23634824 79.9954729,5.23634824 C79.8876141,5.23634824 79.7873788,5.22251294 79.6944847,5.19738353 C79.6015906,5.17084235 79.5194259,5.12792471 79.4488376,5.06919529 C79.3782494,5.01018353 79.3223435,4.92999529 79.2816847,4.82947765 C79.2410259,4.72952471 79.2201318,4.60528941 79.2201318,4.45620706 L79.2201318,1.11173647 Z" id="Fill-9"></path>
                <path d="M82.7202918,3.49202824 C82.7202918,3.38812235 82.7061741,3.28901647 82.6782212,3.19358118 C82.6508329,3.09899294 82.6098918,3.01626353 82.55568,2.94539294 C82.5023153,2.87536941 82.4331388,2.81833412 82.3498447,2.77541647 C82.2662682,2.73249882 82.1665976,2.71104 82.05168,2.71104 C81.8249506,2.71104 81.6513035,2.78049882 81.5307388,2.91828706 C81.4096094,3.05466353 81.3361976,3.24581647 81.3107859,3.49202824 L82.7202918,3.49202824 Z M81.3045741,3.90426353 C81.3121976,4.21598118 81.3932329,4.44440471 81.5473976,4.59009882 C81.70128,4.73494588 81.9291388,4.80694588 82.2304094,4.80694588 C82.4935624,4.80694588 82.7442918,4.76007529 82.9825976,4.66802824 C83.0119624,4.72421647 83.0359624,4.79113412 83.05488,4.87132235 C83.0732329,4.95122824 83.0842447,5.03000471 83.0881976,5.10821647 C82.9656565,5.15960471 82.8309741,5.19885176 82.6841506,5.22539294 C82.5373271,5.25108706 82.3744094,5.26435765 82.1968094,5.26435765 C81.9367624,5.26435765 81.7134212,5.22793412 81.5279153,5.15452235 C81.3421271,5.08224 81.1882447,4.98087529 81.06768,4.84816941 C80.9471153,4.71687529 80.8593035,4.56073412 80.8031153,4.38031059 C80.7474918,4.20073412 80.7192565,4.00308706 80.7192565,3.78793412 C80.7192565,3.57475765 80.7463624,3.37682824 80.8002918,3.19358118 C80.8542212,3.00976941 80.9369506,2.85024 81.04848,2.71386353 C81.1602918,2.57889882 81.3000565,2.47019294 81.4691859,2.39169882 C81.6383153,2.31151059 81.8376565,2.27113412 82.0683388,2.27113412 C82.2651388,2.27113412 82.4379388,2.30416941 82.5864565,2.37165176 C82.7352565,2.43856941 82.8594918,2.53061647 82.9600094,2.64694588 C83.0599624,2.76468706 83.1361976,2.90388706 83.1884329,3.06511059 C83.2406682,3.22746353 83.2669271,3.40280471 83.2669271,3.59254588 C83.2669271,3.64506353 83.2646682,3.69927529 83.2604329,3.75659294 C83.2570447,3.81447529 83.2533741,3.86388706 83.2499859,3.90426353 L81.3045741,3.90426353 Z" id="Fill-11"></path>
                <path d="M85.3563388,1.19045647 L87.5581271,1.19045647 C87.5685741,1.26386824 87.5745035,1.34518588 87.5745035,1.43525647 C87.5745035,1.47648 87.5733741,1.51939765 87.5719624,1.56372706 C87.5699859,1.60805647 87.5651859,1.64899765 87.5581271,1.68683294 L85.9249976,1.68683294 L85.9249976,2.83431529 L87.2289035,2.83431529 C87.2359624,2.87130353 87.2418918,2.91168 87.2455624,2.95488 C87.2489506,2.99695059 87.2509271,3.03873882 87.2509271,3.07911529 C87.2509271,3.12005647 87.2489506,3.16325647 87.2455624,3.20758588 C87.2418918,3.25248 87.2359624,3.29285647 87.2289035,3.33069176 L85.9249976,3.33069176 L85.9249976,4.70123294 L87.6021741,4.70123294 C87.6131859,4.77577412 87.6188329,4.85793882 87.6188329,4.94603294 C87.6188329,4.98753882 87.6179859,5.03017412 87.6160094,5.07422118 C87.6140329,5.11883294 87.6097976,5.15977412 87.6021741,5.19732706 L85.3563388,5.19732706 L85.3563388,1.19045647 Z" id="Fill-13"></path>
                <path d="M89.8094682,3.85473882 C89.7535624,3.84683294 89.6829741,3.83892706 89.5977035,3.83158588 C89.5118682,3.82368 89.4395859,3.82085647 89.3800094,3.82085647 C89.1496094,3.82085647 88.9742682,3.86405647 88.8531388,3.94819765 C88.7328565,4.03403294 88.6721506,4.16363294 88.6721506,4.33840941 C88.6721506,4.44965647 88.6927624,4.53831529 88.7331388,4.60128 C88.7743624,4.66396235 88.8257506,4.71168 88.8864565,4.74556235 C88.9480094,4.77859765 89.0154918,4.80033882 89.0900329,4.80711529 C89.1642918,4.81502118 89.2351624,4.81756235 89.3017976,4.81756235 C89.3876329,4.81756235 89.4757271,4.81360941 89.5669271,4.80429176 C89.6578447,4.79525647 89.7385976,4.78113882 89.8094682,4.76250353 L89.8094682,3.85473882 Z M89.8094682,3.31290353 C89.8094682,3.09492706 89.7535624,2.94217412 89.6423153,2.85662118 C89.5307859,2.77135059 89.3684329,2.72843294 89.1566682,2.72843294 C89.0270682,2.72843294 88.9053741,2.73746824 88.7918682,2.75949176 C88.6786447,2.77925647 88.5682447,2.80579765 88.4609506,2.83968 C88.39008,2.71657412 88.3545035,2.57088 88.3545035,2.39949176 C88.4809976,2.35770353 88.62048,2.32720941 88.7723859,2.30405647 C88.9245741,2.28175059 89.0719624,2.27102118 89.2131388,2.27102118 C89.5841506,2.27102118 89.8662212,2.35516235 90.0596329,2.52542118 C90.2527624,2.69398588 90.3496094,2.96391529 90.3496094,3.33605647 L90.3496094,5.12532706 C90.2194447,5.15440941 90.0616094,5.18546824 89.8755388,5.21596235 C89.6900329,5.24843294 89.5005741,5.26424471 89.3074447,5.26424471 C89.1253271,5.26424471 88.9609976,5.24702118 88.8144565,5.21342118 C88.6670682,5.18010353 88.5428329,5.12645647 88.4403388,5.05191529 C88.3389741,4.97822118 88.2601976,4.88306824 88.2037271,4.76786824 C88.1483859,4.65295059 88.1204329,4.51375059 88.1204329,4.34970353 C88.1204329,4.19017412 88.1531859,4.04984471 88.2178447,3.92956235 C88.2827859,3.80899765 88.37088,3.70904471 88.4829741,3.62829176 C88.5942212,3.54838588 88.7221271,3.48937412 88.8672565,3.44899765 C89.0123859,3.41059765 89.1642918,3.39224471 89.3238212,3.39224471 C89.4429741,3.39224471 89.5406682,3.39478588 89.6166212,3.40015059 C89.6934212,3.40551529 89.7566682,3.41200941 89.8094682,3.41991529 L89.8094682,3.31290353 Z" id="Fill-15"></path>
                <path d="M91.1302306,4.67864471 C91.2304659,4.71958588 91.3405835,4.75205647 91.4619953,4.77577412 C91.5822776,4.80033882 91.7019953,4.81219765 91.8211482,4.81219765 C91.9064188,4.81219765 91.9883012,4.80288 92.0662306,4.78396235 C92.14416,4.76673882 92.2122071,4.73878588 92.2698071,4.70123294 C92.3274071,4.66396235 92.3739953,4.61850353 92.4087247,4.56485647 C92.4440188,4.51120941 92.4623718,4.44965647 92.4623718,4.38273882 C92.4623718,4.30932706 92.4482541,4.24777412 92.4200188,4.19949176 C92.3923482,4.15177412 92.35536,4.11026824 92.3084894,4.07638588 C92.2621835,4.04335059 92.2082541,4.01483294 92.1475482,3.99111529 C92.0859953,3.96711529 92.0196424,3.94283294 91.9493365,3.92165647 L91.7539482,3.84824471 C91.5167718,3.75958588 91.3436894,3.65963294 91.2358306,3.54697412 C91.1282541,3.43572706 91.0740424,3.28636235 91.0740424,3.09633882 C91.0740424,2.84335059 91.1643953,2.64316235 91.3451012,2.49408 C91.5246776,2.34584471 91.7898071,2.27102118 92.1387953,2.27102118 C92.2836424,2.27102118 92.4256659,2.28570353 92.5654306,2.31280941 C92.7043482,2.34048 92.8260424,2.37436235 92.9302306,2.40993882 C92.9223247,2.48476235 92.9090541,2.55845647 92.8884424,2.63384471 C92.8683953,2.70838588 92.8427012,2.77671529 92.8127718,2.83968 C92.7311718,2.80975059 92.6334776,2.78066824 92.5208188,2.75412706 C92.4073129,2.72560941 92.2859012,2.71120941 92.1554541,2.71120941 C92.0185129,2.71120941 91.8965365,2.73492706 91.7903718,2.78349176 C91.6844894,2.83290353 91.6316894,2.91845647 91.6316894,3.04015059 C91.6316894,3.10283294 91.6443953,3.15789176 91.6706541,3.20222118 C91.6969129,3.24598588 91.7322071,3.28495059 91.7768188,3.31544471 C91.8211482,3.34791529 91.8725365,3.37417412 91.9301365,3.39732706 C91.9874541,3.41991529 92.0498541,3.44109176 92.1164894,3.46424471 L92.3621365,3.54697412 C92.4507953,3.57746824 92.5352188,3.61248 92.6156894,3.65285647 C92.6950306,3.69379765 92.7639247,3.74490353 92.8212424,3.80645647 C92.8788424,3.86800941 92.9254306,3.94283294 92.9610071,4.03008 C92.9960188,4.11676235 93.0140894,4.22264471 93.0140894,4.34433882 C93.0140894,4.48212706 92.9858541,4.60777412 92.9302306,4.71958588 C92.8743247,4.83337412 92.7952659,4.93022118 92.6930541,5.01012706 C92.5914071,5.09031529 92.4677365,5.15186824 92.3226071,5.19732706 C92.1783247,5.24193882 92.0185129,5.26424471 91.8434541,5.26424471 C91.6655718,5.26424471 91.5094306,5.25238588 91.3750306,5.22782118 C91.2411953,5.20410353 91.1166776,5.17106824 91.0020424,5.13069176 C91.0091012,5.05586824 91.0254776,4.98104471 91.0491953,4.90424471 C91.0734776,4.82829176 91.1003012,4.75346824 91.1302306,4.67864471" id="Fill-17"></path>
                <path d="M93.8219576,2.77801412 L93.3871341,2.77801412 L93.3645459,2.70064941 L94.3231341,1.63053176 L94.3677459,1.63053176 L94.3677459,2.33782588 L95.0922635,2.33782588 C95.1072282,2.40079059 95.1142871,2.47166118 95.1142871,2.54902588 C95.1142871,2.59081412 95.1123106,2.62977882 95.1092047,2.66676706 C95.1052518,2.70460235 95.0998871,2.74159059 95.0922635,2.77801412 L94.3677459,2.77801412 L94.3677459,4.08163765 C94.3677459,4.23862588 94.37424,4.36286118 94.3875106,4.45632 C94.4004988,4.54893176 94.42224,4.62093176 94.4535812,4.67062588 C94.4857694,4.71947294 94.5286871,4.75476706 94.5820518,4.77057882 C94.6362635,4.78864941 94.7037459,4.79627294 94.7856282,4.79627294 C94.8491576,4.79627294 94.9087341,4.79119059 94.9637929,4.78130824 C95.0194165,4.77199059 95.0696753,4.76267294 95.1142871,4.75081412 C95.1405459,4.82535529 95.1569224,4.90159059 95.1620047,4.97980235 C95.1673694,5.05857882 95.1699106,5.12662588 95.1699106,5.18563765 C95.0959341,5.20399059 95.0180047,5.21867294 94.9366871,5.22799059 C94.85424,5.23787294 94.7667106,5.24182588 94.6743812,5.24182588 C94.4069929,5.24182588 94.1974871,5.17773176 94.0472753,5.04672 C93.8967812,4.91683765 93.8219576,4.70112 93.8219576,4.40013176 L93.8219576,2.77801412 Z" id="Fill-19"></path>
                <g id="Group-23" transform="translate(0.000000, 0.077421)">
                    <path d="M95.0180894,12.2603294 L94.14816,12.5076706 C93.3138071,9.53901176 91.9220894,8.26588235 89.93856,8.26588235 C88.5471247,8.26588235 87.5727247,9.2208 87.5727247,10.7415529 C87.5727247,12.1894588 88.7207718,12.9684706 91.8167718,14.2760471 C94.6705129,15.3712941 95.8532894,16.7158588 95.8532894,19.0480941 C95.8532894,22.6190118 93.1746071,24.8470588 88.7555012,24.8470588 C86.6330541,24.8470588 84.2324894,24.3526588 82.8755012,23.7868235 L82.7018541,18.8368941 L83.5367718,18.6604235 C84.7890071,22.0531765 86.3896659,23.3263059 88.4773835,23.3263059 C90.2861365,23.3263059 91.2258071,22.0187294 91.2258071,20.6747294 C91.2258071,19.3318588 90.4947953,18.5531294 87.6769129,17.4928941 C84.9982306,16.5735529 83.1541835,15.3712941 83.1541835,12.4026353 C83.1541835,9.46842353 85.6239247,6.99388235 89.8343718,6.99388235 C91.8167718,6.99388235 93.6263718,7.34682353 94.8097129,7.91265882 L95.0180894,12.2603294 Z M76.8571482,13.8160941 C76.9613365,11.4835765 76.5084424,8.12357647 74.66496,8.12357647 C72.7859012,8.12357647 71.7423247,11.2709647 71.7070306,13.9578353 L76.8571482,13.8160941 Z M75.1170071,6.99388235 C79.7444894,6.99388235 81.9714071,10.5283765 82.0061365,15.1600941 L71.6034071,15.1600941 C71.5686776,19.2609882 73.6558306,22.3713882 77.5525835,22.3713882 C79.2577129,22.3713882 80.2321129,21.8769882 81.2751247,21.0993882 L81.7627482,21.6640941 C80.6144188,23.2918588 78.2485835,24.8470588 75.0828424,24.8470588 C70.0024659,24.8470588 66.4885835,21.2052706 66.4885835,16.0794353 C66.4885835,11.4477176 69.3767718,6.99388235 75.1170071,6.99388235 Z M60.1215247,15.5841882 C60.0170541,11.9073882 58.7298071,9.00762353 56.2595012,9.00762353 C55.6676894,9.00762353 55.2156424,9.11350588 54.5199247,9.36254118 C54.5199247,15.2309647 54.5899482,21.8769882 54.7291482,23.4686118 C54.9725365,23.5739294 55.5635012,23.6445176 55.9813835,23.6445176 C58.3822306,23.6445176 60.1215247,20.1088941 60.1215247,15.5841882 Z M65.27136,15.3004235 C65.27136,21.0993882 61.7563482,24.8470588 55.8077365,24.8470588 C53.6850071,24.8470588 51.4931012,24.4929882 49.5795953,24.0344471 C49.7535247,21.7005176 49.7535247,7.27595294 49.5795953,4.55407059 C49.4051012,3.1392 49.0225129,2.46748235 47.9789365,2.32574118 L47.2832188,2.25515294 L47.2832188,1.61985882 L54.6246776,0.204988235 C54.5899482,1.40724706 54.5199247,4.55407059 54.5199247,8.26588235 C55.8077365,7.59416471 56.9896659,7.20508235 58.5906071,7.20508235 C62.4179012,7.20508235 65.27136,10.5992471 65.27136,15.3004235 Z M46.5872188,12.1550118 C44.3255718,10.5992471 41.8899953,11.2709647 41.4029365,12.1550118 C41.1942776,14.8768941 41.2290071,19.0480941 41.4376659,21.2052706 C41.5421365,22.6190118 41.9247247,23.2209882 42.9685835,23.3263059 L44.3603012,23.4686118 L44.3603012,24.3871059 L33.9923012,24.3871059 L33.9923012,23.4686118 L34.7922071,23.3263059 C35.8013365,23.2209882 36.1494776,22.6190118 36.2189365,21.2052706 C36.4623247,18.9077647 36.5320659,14.0992941 36.2189365,11.4477176 C36.1494776,9.92696471 35.8013365,9.36254118 34.7922071,9.2208 L33.9923012,9.11350588 L33.9923012,8.47821176 L41.4029365,6.99388235 L41.2987482,10.9527529 C43.0380424,6.85157647 46.4830306,6.35745882 48.3615247,7.45270588 L46.5872188,12.1550118 Z M22.2670306,15.9371294 C22.2670306,20.2503529 23.3803482,23.7868235 25.6419953,23.7868235 C28.0775718,23.7868235 28.7735718,20.3212235 28.7735718,15.9371294 C28.7735718,11.5541647 27.6947012,8.12357647 25.3983247,8.12357647 C22.9630306,8.12357647 22.2670306,11.4835765 22.2670306,15.9371294 Z M34.0273129,15.8662588 C34.0273129,20.8161882 30.8954541,24.8470588 25.2941365,24.8470588 C19.7967247,24.8470588 17.0132894,21.0288 17.0132894,16.0077176 C17.0132894,11.0942118 20.1448659,6.99388235 25.7461835,6.99388235 C31.2435953,6.99388235 34.0273129,10.8468706 34.0273129,15.8662588 Z M19.6230776,7.80235387 L18.4747482,8.1555774 C17.5006306,4.69138917 15.7955012,2.71068328 12.8381365,2.71068328 L8.97611294,2.71068328 C8.76745412,5.00960093 8.66326588,8.57910681 8.76745412,12.4337892 L11.3422306,12.2923303 C13.0820894,12.2923303 13.8125365,10.9839068 14.2298541,9.07407152 L15.2042541,9.07407152 L15.2042541,17.0999539 L14.2298541,17.0999539 C13.8125365,15.1556715 13.0820894,13.8475303 11.3422306,13.7422127 L8.76745412,13.7057892 C8.76745412,16.5691303 8.80218353,19.0086598 8.97611294,20.4935539 C9.15032471,22.6145892 9.70712471,23.5695068 11.2030306,23.7818362 L12.5950306,23.9241421 L12.5950306,24.8426362 L0.000112941176,24.8426362 L0.000112941176,23.9241421 L1.04312471,23.7818362 C2.50486588,23.5695068 3.09639529,22.6145892 3.27004235,20.4935539 C3.54872471,17.0290833 3.61818353,9.63990681 3.27004235,5.5395774 C3.09639529,3.34710681 2.50486588,2.46305976 1.04312471,2.28630681 L0.000112941176,2.11040093 L0.000112941176,1.15548328 L19.5883482,1.15548328 L19.6230776,7.80235387 Z" id="Fill-21"></path>
                </g>
            </g>
        </g>
    </g>
</svg>
