<?xml version="1.0" encoding="UTF-8"?>
<svg width="18px" height="18px" viewBox="0 0 18 18" version="1.1" xmlns="http://www.w3.org/2000/svg" xmlns:xlink="http://www.w3.org/1999/xlink">
    <!-- Generator: Sketch 56.3 (81716) - https://sketch.com -->
    <title>super g</title>
    <desc>Created with Sketch.</desc>
    <defs>
        <path d="M14.1819443,14.7560765 C12.7694378,16.043269 10.8355363,16.7894676 8.53191834,16.7894676 C5.19499028,16.7894676 2.32257777,14.9053162 0.919551199,12.1630365 L3.67820479,10.0550256 C4.36075826,12.0790892 6.27569993,13.5435039 8.53191834,13.5435039 C9.80222618,13.5435039 10.7691769,13.198387 11.48965,12.7040305 C12.6272391,11.920522 13.1391542,10.7545867 13.2339533,9.98040574 L8.53191834,9.98040574 L8.53191834,6.86502675 L16.5424417,6.86502675 C16.6656805,7.38736574 16.7225599,7.89104977 16.7225599,8.58128344 C16.7225599,11.1370135 15.7935288,13.2916618 14.1819443,14.7560765 Z M3.66872489,6.734442 C3.49808652,7.25678099 3.39380752,7.81642991 3.39380752,8.3947338 C3.39380752,8.97303768 3.49808652,9.5326866 3.67820479,10.0550256 L0.910071289,12.1630365 C0.331796824,11.0250837 -1.86517468e-14,9.74721869 -1.86517468e-14,8.3947338 C-1.86517468e-14,7.04224891 0.331796824,5.76438387 0.910071289,4.62643107 C2.31309786,1.88415136 5.19499028,0 8.53191834,0 C10.8355363,0 12.7599579,0.830145898 14.2388237,2.18263079 L11.8309268,4.49584632 C11.2147327,3.92686992 10.134023,3.24596373 8.53191834,3.24596373 C6.27569993,3.24596373 4.36075826,4.71037841 3.66872489,6.734442 Z" id="path-1"></path>
    </defs>
    <g id="Web" stroke="none" stroke-width="1" fill="none" fill-rule="evenodd">
        <g id="Login" transform="translate(-710.000000, -523.000000)">
            <g id="Popup" transform="translate(420.000000, 142.000000)">
                <g id="Group-6" transform="translate(172.000000, 41.000000)">
                    <g id="Group-5" transform="translate(26.000000, 322.000000)">
                        <g id="Group-2" transform="translate(74.946237, 0.000000)">
                            <g id="Social-/-Facebook-Copy" transform="translate(17.634409, 17.666667)">
                                <g id="Google">
                                    <g id="super-g" transform="translate(0.107358, 0.709923)">
                                        <mask id="mask-2" fill="white">
                                            <use xlink:href="#path-1"></use>
                                        </mask>
                                        <use id="G" fill="#D8503F" xlink:href="#path-1"></use>
                                    </g>
                                </g>
                            </g>
                        </g>
                    </g>
                </g>
            </g>
        </g>
    </g>
</svg>