<?xml version="1.0" encoding="UTF-8"?>
<svg width="14px" height="15px" viewBox="0 0 14 15" version="1.1" xmlns="http://www.w3.org/2000/svg" xmlns:xlink="http://www.w3.org/1999/xlink">
    <!-- Generator: Sketch 55.2 (78181) - https://sketchapp.com -->
    <title>Social / Facebook Copy 3</title>
    <desc>Created with Sketch.</desc>
    <defs>
        <path d="M11.596654,12.0275944 C10.4416396,13.0767778 8.86027773,13.685 6.97659664,13.685 C4.24797218,13.685 1.89918464,12.1492389 0.751922082,9.91402222 L3.00768833,8.19579444 C3.56581606,9.84559722 5.13167442,11.0392333 6.97659664,11.0392333 C8.01533436,11.0392333 8.80601531,10.7579306 9.39515014,10.3549833 C10.325363,9.71635 10.7439588,8.76600278 10.8214766,8.13497222 L6.97659664,8.13497222 L6.97659664,5.59564444 L13.5268457,5.59564444 C13.6276188,6.0214 13.6741294,6.43195 13.6741294,6.99455556 C13.6741294,9.07771667 12.9144556,10.8339583 11.596654,12.0275944 Z M2.99993655,5.48920556 C2.86040462,5.91496111 2.77513511,6.37112778 2.77513511,6.8425 C2.77513511,7.31387222 2.86040462,7.77003889 3.00768833,8.19579444 L0.744170308,9.91402222 C0.271312092,8.98648333 -1.86517468e-14,7.94490278 -1.86517468e-14,6.8425 C-1.86517468e-14,5.74009722 0.271312092,4.69851667 0.744170308,3.77097778 C1.89143287,1.53576111 4.24797218,0 6.97659664,0 C8.86027773,0 10.4338879,0.676647222 11.6431646,1.77905 L9.67421401,3.66453889 C9.17034869,3.20076944 8.28664645,2.64576667 6.97659664,2.64576667 C5.13167442,2.64576667 3.56581606,3.83940278 2.99993655,5.48920556 Z" id="path-1"></path>
    </defs>
    <g id="Symbols" stroke="none" stroke-width="1" fill="none" fill-rule="evenodd">
        <g id="Footer" transform="translate(-343.000000, -498.000000)">
            <g id="Social-/-Facebook-Copy-3">
                <g transform="translate(343.000000, 498.000000)">
                    <g id="Google">
                        <g id="super-g" transform="translate(0.087788, 0.578654)">
                            <mask id="mask-2" fill="white">
                                <use xlink:href="#path-1"></use>
                            </mask>
                            <use id="G" fill="#FFFFFF" xlink:href="#path-1"></use>
                        </g>
                    </g>
                </g>
            </g>
        </g>
    </g>
</svg>