<?xml version="1.0" encoding="UTF-8"?>
<svg width="17px" height="17px" viewBox="0 0 17 17" version="1.1" xmlns="http://www.w3.org/2000/svg" xmlns:xlink="http://www.w3.org/1999/xlink">
    <!-- Generator: Sketch 55.2 (78181) - https://sketchapp.com -->
    <title>Social / Facebook Copy 4</title>
    <desc>Created with Sketch.</desc>
    <defs>
        <path d="M8.13849014,0.124615385 C5.96565774,0.124615385 5.69297028,0.134086253 4.83957185,0.172800502 C3.98784022,0.211680907 3.40646254,0.346100769 2.89775707,0.543327439 C2.37155027,0.747034176 1.92518289,1.01952932 1.4804823,1.46299856 C1.03544836,1.90630164 0.762094175,2.35126627 0.557078537,2.87565327 C0.358730075,3.38292625 0.223719777,3.96264306 0.18538352,4.81136574 C0.147213942,5.6620823 0.137213179,5.93407898 0.137213179,8.10008308 C0.137213179,10.2660872 0.146880583,10.5370869 0.185550199,11.3878035 C0.224719853,12.2368585 0.359563472,12.8164091 0.557245217,13.323516 C0.761760816,13.8480691 1.035115,14.2930337 1.47998226,14.7363368 C1.92451617,15.1799722 2.37088355,15.453132 2.896757,15.6568387 C3.40579582,15.8540654 3.98734018,15.9884852 4.83890513,16.0273657 C5.69230356,16.0660799 5.96482435,16.0755508 8.13749006,16.0755508 C10.3104891,16.0755508 10.5823432,16.0660799 11.4357416,16.0273657 C12.2874733,15.9884852 12.8695177,15.8540654 13.3785565,15.6568387 C13.9045966,15.453132 14.3502973,15.1799722 14.7948312,14.7363368 C15.2398651,14.2930337 15.5132193,13.8480691 15.718235,13.3236821 C15.9149166,12.8164091 16.0499269,12.2366923 16.08993,11.3879696 C16.1282662,10.5372531 16.138267,10.2660872 16.138267,8.10008308 C16.138267,5.93407898 16.1282662,5.66224845 16.08993,4.8115319 C16.0499269,3.9624769 15.9149166,3.38292625 15.718235,2.87581943 C15.5132193,2.35126627 15.2398651,1.90630164 14.7948312,1.46299856 C14.3497972,1.01936317 13.9047633,0.74686802 13.3780565,0.543327439 C12.8680176,0.346100769 12.2863065,0.211680907 11.4345749,0.172800502 C10.5811765,0.134086253 10.3094891,0.124615385 8.13598995,0.124615385 L8.13849014,0.124615385 Z M12.4091492,2.88612107 C11.8791088,2.88612107 11.449076,3.314304 11.449076,3.84284489 C11.449076,4.37121962 11.8791088,4.79990101 12.4091492,4.79990101 C12.9391896,4.79990101 13.3692224,4.37121962 13.3692224,3.84284489 C13.3692224,3.31447015 12.9391896,2.88578876 12.4091492,2.88578876 L12.4091492,2.88612107 Z M8.13849014,4.00434811 C5.86948374,4.00434811 4.02984342,5.83820721 4.02984342,8.10008308 C4.02984342,10.3619589 5.86948374,12.1949873 8.13849014,12.1949873 C10.4074965,12.1949873 12.2464701,10.3619589 12.2464701,8.10008308 C12.2464701,5.83820721 10.4073299,4.00434811 8.13832346,4.00434811 L8.13849014,4.00434811 Z M8.13849014,5.44159385 C9.61126914,5.44159385 10.8053602,6.63176624 10.8053602,8.10008308 C10.8053602,9.56823376 9.61126914,10.7585723 8.13849014,10.7585723 C6.66554446,10.7585723 5.47162006,9.56823376 5.47162006,8.10008308 C5.47162006,6.63176624 6.66554446,5.44159385 8.13849014,5.44159385 L8.13849014,5.44159385 Z" id="path-1"></path>
    </defs>
    <g id="Web" stroke="none" stroke-width="1" fill="none" fill-rule="evenodd">
        <g id="Homepage-Editors-Pick" transform="translate(-1289.000000, -1287.000000)">
            <g id="Social-/-Facebook-Copy-4" transform="translate(1289.000000, 1287.000000)">
                <g id="Instagram">
                    <mask id="mask-2" fill="white">
                        <use xlink:href="#path-1"></use>
                    </mask>
                    <use id="Shape" fill="#000000" xlink:href="#path-1"></use>
                </g>
            </g>
        </g>
    </g>
</svg>