<?xml version="1.0" encoding="UTF-8"?>
<svg width="17px" height="16px" viewBox="0 0 17 16" version="1.1" xmlns="http://www.w3.org/2000/svg" xmlns:xlink="http://www.w3.org/1999/xlink">
    <!-- Generator: Sketch 55.2 (78181) - https://sketchapp.com -->
    <title>Social / Facebook Copy</title>
    <desc>Created with Sketch.</desc>
    <defs>
        <path d="M4.24011079,5.44402293 L4.24011079,15.9732852 L0.670581145,15.9732852 L0.670581145,5.44402293 L4.24011079,5.44402293 Z M4.47520902,2.18689736 C4.47520902,3.19790053 3.70005494,4.00687078 2.45541725,4.00687078 L2.43260603,4.00687078 C1.23423236,4.00687078 0.45950599,3.19790053 0.45950599,2.18689736 C0.45950599,1.15450987 1.25782773,0.368181833 2.47894133,0.368181833 C3.70005494,0.368181833 4.45204137,1.15450987 4.47520902,2.18689736 Z M17.1132002,9.93612798 L17.1130577,15.9732852 L13.5436706,15.9732852 L13.5436706,10.3401239 C13.5436706,8.9251947 13.0271388,7.95968562 11.734954,7.95968562 C10.748796,7.95968562 10.1614069,8.61057962 9.90342614,9.2392507 C9.80904468,9.46455479 9.78587702,9.77847103 9.78587702,10.093156 L9.78587702,15.9735647 L6.21591966,15.9735647 C6.21591966,15.9735647 6.26296782,6.432314 6.21591966,5.44430247 L9.78587702,5.44430247 L9.78587702,6.93568414 C10.2596377,6.21875032 11.1081442,5.19677546 13.0033296,5.19677546 C15.3522446,5.19677546 17.1132002,6.70199405 17.1132002,9.93612798 Z" id="path-1"></path>
    </defs>
    <g id="Web" stroke="none" stroke-width="1" fill="none" fill-rule="evenodd">
        <g id="Homepage-Editors-Pick" transform="translate(-1178.000000, -1287.000000)">
            <g id="Social-/-Facebook-Copy" transform="translate(1177.000000, 1286.000000)">
                <g id="LinkedIN" transform="translate(0.540741, 0.720001)">
                    <mask id="mask-2" fill="white">
                        <use xlink:href="#path-1"></use>
                    </mask>
                    <use id="Shape" fill="#000000" xlink:href="#path-1"></use>
                </g>
            </g>
        </g>
    </g>
</svg>