<?xml version="1.0" encoding="UTF-8"?>
<svg width="18px" height="15px" viewBox="0 0 18 15" version="1.1" xmlns="http://www.w3.org/2000/svg" xmlns:xlink="http://www.w3.org/1999/xlink">
    <!-- Generator: Sketch 55.2 (78181) - https://sketchapp.com -->
    <title>twitter 2</title>
    <desc>Created with Sketch.</desc>
    <defs>
        <path d="M8.51504583,4.22421921 L8.55116492,4.82975869 L7.94917998,4.755611 C5.75795478,4.47137818 3.84364265,3.50745819 2.2182833,1.88856692 L1.42366317,1.08530027 L1.21898829,1.6784818 C0.78555913,3.0007823 1.0624722,4.39723049 1.96544962,5.33643458 C2.44703758,5.85546842 2.33868029,5.92961611 1.50794106,5.6206674 C1.21898829,5.52180381 0.966154614,5.44765612 0.942075216,5.48472996 C0.857797324,5.5712356 1.1467501,6.69580892 1.37550438,7.14069507 C1.68853655,7.7585925 2.32664059,8.36413198 3.02494313,8.72251249 L3.61488837,9.00674531 L2.91658584,9.01910326 C2.2423627,9.01910326 2.2182833,9.03146121 2.29052149,9.29097813 C2.53131547,10.0942448 3.48245168,10.9469432 4.54194519,11.3176817 L5.28840652,11.5771986 L4.63826278,11.972653 C3.67508687,12.5411186 2.54335517,12.8624253 1.41162347,12.8871412 C0.869837022,12.8994991 0.424368163,12.9489309 0.424368163,12.9860048 C0.424368163,13.1095842 1.89321143,13.8016294 2.74803005,14.0735042 C5.31248592,14.8767709 8.35852974,14.5307483 10.6460725,13.159016 C12.2714319,12.1827381 13.8967912,10.2425402 14.6552923,8.36413198 C15.064642,7.36313815 15.4739918,5.53416176 15.4739918,4.65674741 C15.4739918,4.08828177 15.5101109,4.01413408 16.184334,3.33444691 C16.5816441,2.93899255 16.9548748,2.50646435 17.027113,2.38288487 C17.1475099,2.14808384 17.1354702,2.14808384 16.5214456,2.35816897 C15.4980712,2.72890743 15.3535948,2.67947563 15.8592622,2.12336795 C16.2324928,1.72791359 16.6779617,1.01115257 16.6779617,0.801067448 C16.6779617,0.763993603 16.4973662,0.825783345 16.2926913,0.937004883 C16.0759767,1.06058437 15.5943888,1.2459536 15.2331978,1.35717513 L14.5830541,1.56726026 L13.9931088,1.15944796 C13.668037,0.937004883 13.2105284,0.689845911 12.9697344,0.615698219 C12.3557098,0.442686939 11.4166133,0.467402836 10.8627871,0.665130014 C9.35782475,1.2212377 8.40668854,2.65475974 8.51504583,4.22421921 Z" id="path-1"></path>
    </defs>
    <g id="Web" stroke="none" stroke-width="1" fill="none" fill-rule="evenodd">
        <g id="twitter-2">
            <g id="twitter">
                <g id="Social-/-Facebook">
                    <g id="Twitter">
                        <mask id="mask-2" fill="white">
                            <use xlink:href="#path-1"></use>
                        </mask>
                        <use id="Shape" fill="#1CA1F1" xlink:href="#path-1"></use>
                    </g>
                </g>
            </g>
        </g>
    </g>
</svg>