<?xml version="1.0" encoding="UTF-8"?>
<svg width="16px" height="14px" viewBox="0 0 16 14" version="1.1" xmlns="http://www.w3.org/2000/svg" xmlns:xlink="http://www.w3.org/1999/xlink">
    <!-- Generator: Sketch 55.2 (78181) - https://sketchapp.com -->
    <title>Social / Facebook Copy 2</title>
    <desc>Created with Sketch.</desc>
    <defs>
        <path d="M7.67405365,3.80179729 L7.70660543,4.34678282 L7.16407578,4.2800499 C5.18926789,4.02424036 3.46402362,3.15671237 1.99919359,1.69971023 L1.28305446,0.976770239 L1.09859439,1.51063362 C0.707973043,2.70070407 0.957536679,3.95750744 1.77133114,4.80279112 C2.20535486,5.26992158 2.10769952,5.3366545 1.35900861,5.05860066 C1.09859439,4.96962343 0.870731936,4.9028905 0.84903075,4.93625697 C0.7730766,5.01411204 1.03349083,6.02622803 1.23965209,6.42662557 C1.52176751,6.98273325 2.09684893,7.52771878 2.72618331,7.85026124 L3.25786236,8.10607078 L2.62852798,8.11719293 C2.02089478,8.11719293 1.99919359,8.12831509 2.06429715,8.36188031 C2.28130901,9.08482031 3.13850584,9.85224891 4.09335801,10.1859135 L4.76609477,10.4194788 L4.18016275,10.7753877 C3.31211532,11.2870067 2.2921596,11.5761827 1.27220387,11.598427 C0.783927193,11.6095492 0.382455258,11.6540378 0.382455258,11.6874043 C0.382455258,11.7986258 1.70622758,12.4214664 2.47661968,12.6661538 C4.78779595,13.3890938 7.53299594,13.0776735 9.59460858,11.8431144 C11.0594386,10.9644643 12.5242686,9.21828615 13.207856,7.52771878 C13.5767762,6.62682433 13.9456963,4.98074558 13.9456963,4.19107267 C13.9456963,3.67945359 13.9782481,3.61272067 14.5858813,3.00100222 C14.9439509,2.6450933 15.2803192,2.25581792 15.3454228,2.14459638 C15.4539287,1.93327546 15.4430781,1.93327546 14.8896979,2.12235207 C13.9673975,2.45601668 13.8371904,2.41152807 14.2929153,1.91103115 C14.6292837,1.55512223 15.0307556,0.910037317 15.0307556,0.720960703 C15.0307556,0.687594242 14.8679967,0.743205011 14.6835366,0.843304394 C14.488226,0.954525932 14.0542022,1.12135824 13.7286845,1.22145762 L13.1427524,1.41053423 L12.6110734,1.04350316 C12.3181074,0.843304394 11.9057849,0.62086132 11.688773,0.554128398 C11.1353928,0.398418245 10.2890465,0.420662553 9.78991925,0.598617012 C8.43359515,1.09911393 7.57639831,2.38928376 7.67405365,3.80179729 Z" id="path-1"></path>
    </defs>
    <g id="Web" stroke="none" stroke-width="1" fill="none" fill-rule="evenodd">
        <g id="Homepage-Editors-Pick" transform="translate(-1216.000000, -1288.000000)">
            <g id="Social-/-Facebook-Copy-2" transform="translate(1216.000000, 1288.000000)">
                <g id="Twitter">
                    <mask id="mask-2" fill="white">
                        <use xlink:href="#path-1"></use>
                    </mask>
                    <use id="Shape" fill="#000000" xlink:href="#path-1"></use>
                </g>
            </g>
        </g>
    </g>
</svg>