<?xml version="1.0" encoding="UTF-8"?>
<svg width="17px" height="17px" viewBox="0 0 17 17" version="1.1" xmlns="http://www.w3.org/2000/svg" xmlns:xlink="http://www.w3.org/1999/xlink">
    <!-- Generator: Sketch 56.3 (81716) - https://sketch.com -->
    <title>WhatsApp</title>
    <desc>Created with Sketch.</desc>
    <g id="Web" stroke="none" stroke-width="1" fill="none" fill-rule="evenodd">
        <g id="Longread" transform="translate(-292.000000, -888.000000)" fill="#FFFFFF" fill-rule="nonzero">
            <g id="Social" transform="translate(291.000000, 777.000000)">
                <g id="whatsapp-logo" transform="translate(1.000000, 111.000000)">
                    <path d="M17,8.28107778 C17,12.8546444 13.2639667,16.5621556 8.65451111,16.5621556 C7.19118889,16.5621556 5.81645556,16.1881556 4.62041111,15.5317667 L0,17 L1.50638889,12.5569556 C0.746488889,11.3091556 0.308833333,9.84564444 0.308833333,8.28107778 C0.308833333,3.70751111 4.04524444,0 8.65451111,0 C13.2643444,0 17,3.70751111 17,8.28107778 Z M8.65451111,1.31882222 C4.78531111,1.31882222 1.63804444,4.4421 1.63804444,8.28107778 C1.63804444,9.80446667 2.13463333,11.2152778 2.97462222,12.3629667 L2.09798889,14.9486667 L4.79437778,14.0916778 C5.90221111,14.8190889 7.22934444,15.2433333 8.6547,15.2433333 C12.5233333,15.2433333 15.6711667,12.1204333 15.6711667,8.28145556 C15.6711667,4.44247778 12.5235222,1.31882222 8.65451111,1.31882222 Z M12.8688111,10.1882889 C12.8172444,10.1038556 12.6810556,10.0528556 12.4766778,9.95142222 C12.2719222,9.84998889 11.2659,9.35868889 11.0789,9.29125556 C10.8913333,9.22363333 10.7545778,9.18963333 10.6183889,9.39268889 C10.4822,9.59593333 10.0900667,10.0528556 9.9705,10.1882889 C9.85112222,10.3241 9.73193333,10.3411 9.52717778,10.2394778 C9.3228,10.1380444 8.66376667,9.92346667 7.88233333,9.23213333 C7.2743,8.69417778 6.86365556,8.03004444 6.74427778,7.82661111 C6.62508889,7.62355556 6.73181111,7.51381111 6.834,7.41275556 C6.92617778,7.32171111 7.03875556,7.1757 7.14094444,7.05726667 C7.24351111,6.93864444 7.27751111,6.85421111 7.34532222,6.71858889 C7.41388889,6.58315556 7.3797,6.46472222 7.32832222,6.36291111 C7.27732222,6.26147778 6.86781111,5.26263333 6.69743333,4.85614444 C6.52705556,4.45003333 6.35686667,4.51765556 6.2373,4.51765556 C6.11811111,4.51765556 5.98154444,4.50065556 5.84516667,4.50065556 C5.70878889,4.50065556 5.48703333,4.55146667 5.29946667,4.75452222 C5.11208889,4.95776667 4.58376667,5.44887778 4.58376667,6.44753333 C4.58376667,7.44637778 5.31646667,8.41141111 5.41903333,8.54665556 C5.52122222,8.6819 6.83381111,10.7982111 8.91347778,11.611 C10.9933333,12.4234111 10.9933333,12.1523556 11.3684667,12.1183556 C11.7432222,12.0845444 12.5784889,11.6274333 12.7496222,11.1537 C12.9196222,10.6792111 12.9196222,10.2729111 12.8688111,10.1882889 Z" id="WhatsApp"></path>
                </g>
            </g>
        </g>
    </g>
</svg>